<?xml version="1.0" encoding="UTF-8"?>
<svg version="1.1" xmlns="http://www.w3.org/2000/svg" width="30" height="30">
<path d="M0 0 C0.34123581 1.99866686 0.6725678 3.99902542 1 6 C1.2475 7.155 1.495 8.31 1.75 9.5 C2.051963 13.72748204 1.33539837 15.49690245 -1 19 C-4.43627895 22.43627895 -7.10930331 23.90218607 -12 24 C-17.12537335 22.40936689 -20.24695425 20.6590005 -23 16 C-24.09984834 11.96722277 -24.27089441 9.76753416 -22.875 5.8125 C-20.50444289 2.25666434 -18.07324718 -0.10159289 -14.125 -1.8125 C-9.38296076 -2.23091523 -4.62364174 -0.98077249 0 0 Z M-18 4 C-20.21963243 7.32944864 -20.75539772 9.13918934 -20.48046875 13.0625 C-19.61102978 16.5685303 -17.91963173 18.01216563 -15 20 C-10.80468804 20.51521375 -7.51865971 20.47609387 -4 18 C-1.94074319 14.91111478 -1.7609626 14.29064073 -1.875 10.8125 C-1.91625 9.554375 -1.9575 8.29625 -2 7 C-2.66 6.67 -3.32 6.34 -4 6 C-5.00508801 7.78881736 -6.00392736 9.58114696 -7 11.375 C-7.556875 12.37273438 -8.11375 13.37046875 -8.6875 14.3984375 C-10.15014268 16.81195509 -10.15014268 16.81195509 -10 19 C-13 18 -13 18 -14.38671875 15.71484375 C-14.81597656 14.79832031 -15.24523437 13.88179687 -15.6875 12.9375 C-16.12449219 12.01839844 -16.56148437 11.09929688 -17.01171875 10.15234375 C-17.33785156 9.44207031 -17.66398437 8.73179688 -18 8 C-17.236875 8.515625 -16.47375 9.03125 -15.6875 9.5625 C-14.3571875 10.2740625 -14.3571875 10.2740625 -13 11 C-9.59548229 9.86516076 -9.3994436 9.44722063 -7.8125 6.4375 C-7.214375 5.303125 -6.61625 4.16875 -6 3 C-7.20961344 1.5793073 -7.20961344 1.5793073 -10.75 1.625 C-14.16154135 1.68635866 -15.00317891 2.00211927 -18 4 Z " fill="#000000" transform="translate(26,4)"/>
</svg>
